<svg width="47" height="47" viewBox="0 0 47 47" fill="none" xmlns="http://www.w3.org/2000/svg">
<path d="M12.6174 0.401978C13.5023 0.401978 14.2196 1.11931 14.2196 2.00418C14.2196 2.88906 13.5023 3.60639 12.6174 3.60639H5.56769C4.59433 3.60639 3.80526 4.39546 3.80526 5.36882V13.2196C3.80526 14.1045 3.08793 14.8218 2.20305 14.8218C1.31818 14.8218 0.600845 14.1045 0.600845 13.2196V5.36882C0.600845 2.62571 2.82458 0.401978 5.56769 0.401978H12.6174Z" fill="#111111"/>
<path d="M12.6174 46.866C13.5023 46.866 14.2196 46.1487 14.2196 45.2638C14.2196 44.3789 13.5023 43.6616 12.6174 43.6616H5.56769C4.59433 43.6616 3.80526 42.8725 3.80526 41.8991V34.0483C3.80526 33.1635 3.08793 32.4461 2.20305 32.4461C1.31818 32.4461 0.600845 33.1635 0.600845 34.0483V41.8991C0.600845 44.6423 2.82458 46.866 5.56769 46.866H12.6174Z" fill="#111111"/>
<path d="M34.2472 0.401978C33.3623 0.401978 32.645 1.11931 32.645 2.00418C32.645 2.88906 33.3623 3.60639 34.2472 3.60639H41.2969C42.2703 3.60639 43.0593 4.39546 43.0593 5.36882V13.2196C43.0593 14.1045 43.7767 14.8218 44.6615 14.8218C45.5464 14.8218 46.2637 14.1045 46.2637 13.2196V5.36882C46.2637 2.62571 44.04 0.401978 41.2969 0.401978H34.2472Z" fill="#111111"/>
<path d="M34.2472 46.866C33.3623 46.866 32.645 46.1487 32.645 45.2638C32.645 44.3789 33.3623 43.6616 34.2472 43.6616H41.2969C42.2703 43.6616 43.0593 42.8725 43.0593 41.8991V34.0483C43.0593 33.1635 43.7767 32.4461 44.6615 32.4461C45.5464 32.4461 46.2637 33.1635 46.2637 34.0483V41.8991C46.2637 44.6423 44.04 46.866 41.2969 46.866H34.2472Z" fill="#111111"/>
<path d="M11.8163 18.6671H18.866V11.6174H11.8163V18.6671ZM10.2942 8.41302H20.3881C21.3172 8.41302 22.0704 9.16622 22.0704 10.0953V20.1892C22.0704 21.1184 21.3172 21.8716 20.3881 21.8716H10.2942C9.36508 21.8716 8.61188 21.1184 8.61188 20.1892V10.0953C8.61188 9.16622 9.36508 8.41302 10.2942 8.41302Z" fill="#111111"/>
<path d="M11.8163 34.0483H18.866V26.9986H11.8163V34.0483ZM10.2942 23.7942H20.3881C21.3172 23.7942 22.0704 24.5474 22.0704 25.4765V35.5704C22.0704 36.4995 21.3172 37.2527 20.3881 37.2527H10.2942C9.36508 37.2527 8.61188 36.4995 8.61188 35.5704V25.4765C8.61188 24.5474 9.36508 23.7942 10.2942 23.7942Z" fill="#111111"/>
<path d="M27.1975 18.6671H34.2472V11.6174H27.1975V18.6671ZM25.6754 8.41302H35.7693C36.6984 8.41302 37.4516 9.16622 37.4516 10.0953V20.1892C37.4516 21.1184 36.6984 21.8716 35.7693 21.8716H25.6754C24.7463 21.8716 23.9931 21.1184 23.9931 20.1892V10.0953C23.9931 9.16622 24.7463 8.41302 25.6754 8.41302Z" fill="#111111"/>
<path d="M27.1975 34.0483H34.2472V26.9986H27.1975V34.0483ZM25.6754 23.7942H35.7693C36.6984 23.7942 37.4516 24.5474 37.4516 25.4765V35.5704C37.4516 36.4995 36.6984 37.2527 35.7693 37.2527H25.6754C24.7463 37.2527 23.9931 36.4995 23.9931 35.5704V25.4765C23.9931 24.5474 24.7463 23.7942 25.6754 23.7942Z" fill="#111111"/>
</svg>
